<svg width="18" height="18" viewBox="0 0 18 18" fill="none" xmlns="http://www.w3.org/2000/svg">
<path fill-rule="evenodd" clip-rule="evenodd" d="M10.6753 5.67875L13.2511 8.37872C13.2898 8.41921 13.3087 8.46961 13.3384 8.51461C13.3708 8.56321 13.4095 8.60641 13.432 8.66041C13.4761 8.76931 13.5004 8.88451 13.5004 8.99971C13.5004 9.1176 13.4761 9.2346 13.4311 9.3444C13.3852 9.4542 13.3195 9.5541 13.2358 9.6369L10.5367 12.336C10.1848 12.6879 9.61512 12.6879 9.26412 12.336C8.91223 11.985 8.91223 11.4153 9.26412 11.0634L10.4278 9.89969H5.40048C4.90278 9.89969 4.50049 9.4974 4.50049 8.99971C4.50049 8.50291 4.90278 8.09972 5.40048 8.09972H10.4971L9.37302 6.92163C9.03013 6.56164 9.04273 5.99285 9.40272 5.64905C9.76272 5.30526 10.3324 5.31966 10.6753 5.67875ZM0 8.99988C0 13.9633 4.03735 17.9998 8.99988 17.9998C13.9624 17.9998 17.9998 13.9633 17.9998 8.99988C17.9998 4.03735 13.9624 0 8.99988 0C4.03735 0 0 4.03735 0 8.99988Z" fill="#49A8F8"/>
</svg>
