<svg width="173" height="16" viewBox="0 0 173 16" fill="none" xmlns="http://www.w3.org/2000/svg">
<path d="M12.48 1.04L7.76 10.14V15H4.96V10.14L0.22 1.04H3.38L6.38 7.42L9.36 1.04H12.48ZM20.9248 15.14C19.6182 15.14 18.4182 14.8333 17.3248 14.22C16.2315 13.6067 15.3648 12.76 14.7248 11.68C14.0848 10.5867 13.7648 9.35333 13.7648 7.98C13.7648 6.62 14.0848 5.4 14.7248 4.32C15.3648 3.22667 16.2315 2.37333 17.3248 1.76C18.4182 1.14667 19.6182 0.84 20.9248 0.84C22.2448 0.84 23.4448 1.14667 24.5248 1.76C25.6182 2.37333 26.4782 3.22667 27.1048 4.32C27.7448 5.4 28.0648 6.62 28.0648 7.98C28.0648 9.35333 27.7448 10.5867 27.1048 11.68C26.4782 12.76 25.6182 13.6067 24.5248 14.22C23.4315 14.8333 22.2315 15.14 20.9248 15.14ZM20.9248 12.64C21.7648 12.64 22.5048 12.4533 23.1448 12.08C23.7848 11.6933 24.2848 11.1467 24.6448 10.44C25.0048 9.73333 25.1848 8.91333 25.1848 7.98C25.1848 7.04667 25.0048 6.23333 24.6448 5.54C24.2848 4.83333 23.7848 4.29333 23.1448 3.92C22.5048 3.54667 21.7648 3.36 20.9248 3.36C20.0848 3.36 19.3382 3.54667 18.6848 3.92C18.0448 4.29333 17.5448 4.83333 17.1848 5.54C16.8248 6.23333 16.6448 7.04667 16.6448 7.98C16.6448 8.91333 16.8248 9.73333 17.1848 10.44C17.5448 11.1467 18.0448 11.6933 18.6848 12.08C19.3382 12.4533 20.0848 12.64 20.9248 12.64ZM33.258 1.04V9.68C33.258 10.6267 33.5046 11.3533 33.998 11.86C34.4913 12.3533 35.1846 12.6 36.078 12.6C36.9846 12.6 37.6846 12.3533 38.178 11.86C38.6713 11.3533 38.918 10.6267 38.918 9.68V1.04H41.738V9.66C41.738 10.8467 41.478 11.8533 40.958 12.68C40.4513 13.4933 39.7646 14.1067 38.898 14.52C38.0446 14.9333 37.0913 15.14 36.038 15.14C34.998 15.14 34.0513 14.9333 33.198 14.52C32.358 14.1067 31.6913 13.4933 31.198 12.68C30.7046 11.8533 30.458 10.8467 30.458 9.66V1.04H33.258ZM51.9933 15L48.9133 9.56H47.5933V15H44.7933V1.04H50.0333C51.1133 1.04 52.0333 1.23333 52.7933 1.62C53.5533 1.99333 54.1199 2.50667 54.4933 3.16C54.8799 3.8 55.0733 4.52 55.0733 5.32C55.0733 6.24 54.8066 7.07333 54.2733 7.82C53.7399 8.55333 52.9466 9.06 51.8933 9.34L55.2333 15H51.9933ZM47.5933 7.46H49.9333C50.6933 7.46 51.2599 7.28 51.6333 6.92C52.0066 6.54667 52.1933 6.03333 52.1933 5.38C52.1933 4.74 52.0066 4.24667 51.6333 3.9C51.2599 3.54 50.6933 3.36 49.9333 3.36H47.5933V7.46ZM65.8714 12.78H70.4714V15H63.0714V1.04H65.8714V12.78ZM79.0811 15.14C77.7744 15.14 76.5744 14.8333 75.4811 14.22C74.3878 13.6067 73.5211 12.76 72.8811 11.68C72.2411 10.5867 71.9211 9.35333 71.9211 7.98C71.9211 6.62 72.2411 5.4 72.8811 4.32C73.5211 3.22667 74.3878 2.37333 75.4811 1.76C76.5744 1.14667 77.7744 0.84 79.0811 0.84C80.4011 0.84 81.6011 1.14667 82.6811 1.76C83.7744 2.37333 84.6344 3.22667 85.2611 4.32C85.9011 5.4 86.2211 6.62 86.2211 7.98C86.2211 9.35333 85.9011 10.5867 85.2611 11.68C84.6344 12.76 83.7744 13.6067 82.6811 14.22C81.5878 14.8333 80.3878 15.14 79.0811 15.14ZM79.0811 12.64C79.9211 12.64 80.6611 12.4533 81.3011 12.08C81.9411 11.6933 82.4411 11.1467 82.8011 10.44C83.1611 9.73333 83.3411 8.91333 83.3411 7.98C83.3411 7.04667 83.1611 6.23333 82.8011 5.54C82.4411 4.83333 81.9411 4.29333 81.3011 3.92C80.6611 3.54667 79.9211 3.36 79.0811 3.36C78.2411 3.36 77.4944 3.54667 76.8411 3.92C76.2011 4.29333 75.7011 4.83333 75.3411 5.54C74.9811 6.23333 74.8011 7.04667 74.8011 7.98C74.8011 8.91333 74.9811 9.73333 75.3411 10.44C75.7011 11.1467 76.2011 11.6933 76.8411 12.08C77.4944 12.4533 78.2411 12.64 79.0811 12.64ZM98.3742 5.24C98.0542 4.65333 97.6142 4.20667 97.0542 3.9C96.4942 3.59333 95.8409 3.44 95.0942 3.44C94.2675 3.44 93.5342 3.62667 92.8942 4C92.2542 4.37333 91.7542 4.90667 91.3942 5.6C91.0342 6.29333 90.8542 7.09333 90.8542 8C90.8542 8.93333 91.0342 9.74667 91.3942 10.44C91.7675 11.1333 92.2809 11.6667 92.9342 12.04C93.5875 12.4133 94.3475 12.6 95.2142 12.6C96.2809 12.6 97.1542 12.32 97.8342 11.76C98.5142 11.1867 98.9609 10.3933 99.1742 9.38H94.3742V7.24H101.934V9.68C101.748 10.6533 101.348 11.5533 100.734 12.38C100.121 13.2067 99.3275 13.8733 98.3542 14.38C97.3942 14.8733 96.3142 15.12 95.1142 15.12C93.7675 15.12 92.5475 14.82 91.4542 14.22C90.3742 13.6067 89.5209 12.76 88.8942 11.68C88.2809 10.6 87.9742 9.37333 87.9742 8C87.9742 6.62667 88.2809 5.4 88.8942 4.32C89.5209 3.22667 90.3742 2.38 91.4542 1.78C92.5475 1.16667 93.7609 0.86 95.0942 0.86C96.6675 0.86 98.0342 1.24667 99.1942 2.02C100.354 2.78 101.154 3.85333 101.594 5.24H98.3742ZM110.836 15.14C109.529 15.14 108.329 14.8333 107.236 14.22C106.142 13.6067 105.276 12.76 104.636 11.68C103.996 10.5867 103.676 9.35333 103.676 7.98C103.676 6.62 103.996 5.4 104.636 4.32C105.276 3.22667 106.142 2.37333 107.236 1.76C108.329 1.14667 109.529 0.84 110.836 0.84C112.156 0.84 113.356 1.14667 114.436 1.76C115.529 2.37333 116.389 3.22667 117.016 4.32C117.656 5.4 117.976 6.62 117.976 7.98C117.976 9.35333 117.656 10.5867 117.016 11.68C116.389 12.76 115.529 13.6067 114.436 14.22C113.342 14.8333 112.142 15.14 110.836 15.14ZM110.836 12.64C111.676 12.64 112.416 12.4533 113.056 12.08C113.696 11.6933 114.196 11.1467 114.556 10.44C114.916 9.73333 115.096 8.91333 115.096 7.98C115.096 7.04667 114.916 6.23333 114.556 5.54C114.196 4.83333 113.696 4.29333 113.056 3.92C112.416 3.54667 111.676 3.36 110.836 3.36C109.996 3.36 109.249 3.54667 108.596 3.92C107.956 4.29333 107.456 4.83333 107.096 5.54C106.736 6.23333 106.556 7.04667 106.556 7.98C106.556 8.91333 106.736 9.73333 107.096 10.44C107.456 11.1467 107.956 11.6933 108.596 12.08C109.249 12.4533 109.996 12.64 110.836 12.64ZM137.105 1.04V15H134.305V9.06H128.325V15H125.525V1.04H128.325V6.78H134.305V1.04H137.105ZM143.01 3.3V6.8H147.71V9.02H143.01V12.72H148.31V15H140.21V1.02H148.31V3.3H143.01ZM158.405 15L155.325 9.56H154.005V15H151.205V1.04H156.445C157.525 1.04 158.445 1.23333 159.205 1.62C159.965 1.99333 160.532 2.50667 160.905 3.16C161.292 3.8 161.485 4.52 161.485 5.32C161.485 6.24 161.218 7.07333 160.685 7.82C160.152 8.55333 159.358 9.06 158.305 9.34L161.645 15H158.405ZM154.005 7.46H156.345C157.105 7.46 157.672 7.28 158.045 6.92C158.418 6.54667 158.605 6.03333 158.605 5.38C158.605 4.74 158.418 4.24667 158.045 3.9C157.672 3.54 157.105 3.36 156.345 3.36H154.005V7.46ZM167.168 3.3V6.8H171.868V9.02H167.168V12.72H172.468V15H164.368V1.02H172.468V3.3H167.168Z" fill="url(#paint0_linear_137_279)"/>
<defs>
<linearGradient id="paint0_linear_137_279" x1="15.5262" y1="-12.5" x2="122.11" y2="32.4758" gradientUnits="userSpaceOnUse">
<stop stop-color="#49A8F8"/>
<stop offset="1" stop-color="#0053F4"/>
</linearGradient>
</defs>
</svg>
