<svg width="91" height="91" viewBox="0 0 91 91" fill="none" xmlns="http://www.w3.org/2000/svg">
<circle cx="45.5" cy="45.5" r="45.5" fill="url(#paint0_linear_1807_1713)"/>
<path fill-rule="evenodd" clip-rule="evenodd" d="M42.4466 34.4444C42.4466 33.9538 42.8448 33.5556 43.3355 33.5556H48.6688C49.1595 33.5556 49.5577 33.9538 49.5577 34.4444V37.1111H42.4466V34.4444ZM37.1133 62H54.8911V37.1111H53.1133V34.4444C53.1133 31.9947 51.1186 30 48.6688 30H43.3355C40.8857 30 38.8911 31.9947 38.8911 34.4444V37.1111H37.1133V62ZM58.4449 37.1111V62C61.3853 62 63.7782 59.6071 63.7782 56.6667V42.4444C63.7782 39.504 61.3853 37.1111 58.4449 37.1111ZM28.2227 42.4444C28.2227 39.504 30.6155 37.1111 33.556 37.1111V62C30.6155 62 28.2227 59.6071 28.2227 56.6667V42.4444Z" fill="white"/>
<defs>
<linearGradient id="paint0_linear_1807_1713" x1="27.268" y1="-2.88167" x2="55.3656" y2="100.669" gradientUnits="userSpaceOnUse">
<stop stop-color="#2062F4"/>
<stop offset="1" stop-color="#7337FD"/>
</linearGradient>
</defs>
</svg>
