<svg width="272" height="108" viewBox="0 0 272 108" fill="none" xmlns="http://www.w3.org/2000/svg">
<g clip-path="url(#clip0_141_90)">
<path d="M271.273 0.246094C262.256 0.246094 262.256 15.4618 253.238 15.4618C244.22 15.4618 244.595 9.07662 235.202 9.07662C225.808 9.07662 226.56 27.8245 217.166 27.8245C207.772 27.8245 209.275 20.2982 199.13 20.2982C188.985 20.2982 191.615 38.5842 181.094 38.5842C170.573 38.5842 172.076 11.6579 163.059 11.6579C154.041 11.6579 154.792 31.3024 145.023 31.3024C135.253 31.3024 136.756 25.9225 126.987 25.9225C117.217 25.9225 118.72 39.3721 108.951 39.3721C99.1817 39.3721 100.309 45.8931 90.9153 45.8931C81.5216 45.8931 82.2731 31.2209 72.8794 31.2209C63.4858 31.2209 64.613 46.6539 54.8436 46.6539C45.0742 46.6539 47.3287 37.3343 36.8078 37.3343C26.2869 37.3343 28.1657 26.955 18.772 26.955C9.37834 26.955 10.5056 50.648 0.73618 50.648C-9.03322 50.648 -7.53024 16.8203 -17.2996 16.8203C-27.069 16.8203 -25.9418 37.0354 -35.3355 37.0354C-44.7291 37.0354 -42.8504 49.1265 -53.3713 49.1265C-63.8922 49.1265 -61.2619 41.7903 -71.4071 41.7903C-81.5522 41.7903 -78.922 56.7343 -89.4429 56.7343C-99.9638 56.7343 -97.3336 50.9741 -107.479 50.9741C-117.624 50.9741 -115.745 42.2522 -125.515 42.2522C-135.284 42.2522 -133.781 73.5802 -143.55 73.5802C-153.32 73.5802 -151.065 65.918 -161.586 65.918C-172.107 65.918 -170.604 77.9004 -179.622 77.9004C-188.64 77.9004 -187.513 69.3416 -197.658 69.3416C-207.803 69.3416 -206.3 94.067 -215.694 94.067C-225.087 94.067 -223.209 86.6222 -233.729 86.6222C-244.25 86.6222 -241.62 81.2152 -251.765 81.2152C-261.91 81.2152 -260.032 97.7894 -269.801 97.7894C-279.57 97.7894 -277.316 101.267 -287.837 101.267C-298.358 101.267 -295.352 92.1107 -305.873 92.1107C-316.394 92.1107 -314.891 87.22 -323.909 87.22C-332.926 87.22 -332.926 103.115 -341.944 103.115C-350.962 103.115 -350.211 97.5177 -359.98 97.5177" stroke="white" stroke-width="0.751492"/>
</g>
<defs>
<clipPath id="clip0_141_90">
<rect width="271" height="107.444" fill="white" transform="matrix(-1 0 0 1 271.273 0.195312)"/>
</clipPath>
</defs>
</svg>
