<svg width="10" height="10" viewBox="0 0 10 10" fill="none" xmlns="http://www.w3.org/2000/svg">
<path fill-rule="evenodd" clip-rule="evenodd" d="M5.9306 3.15488L7.36156 4.65484C7.38306 4.67734 7.39356 4.70534 7.41006 4.73034C7.42806 4.75734 7.44956 4.78134 7.46206 4.81134C7.48656 4.87183 7.50006 4.93583 7.50006 4.99983C7.50006 5.06533 7.48656 5.13033 7.46156 5.19133C7.43606 5.25233 7.39956 5.30782 7.35306 5.35382L5.8536 6.85329C5.65811 7.04878 5.34161 7.04878 5.14662 6.85329C4.95112 6.65829 4.95112 6.3418 5.14662 6.1463L5.7931 5.49982H3.00017C2.72368 5.49982 2.50018 5.27632 2.50018 4.99983C2.50018 4.72384 2.72368 4.49984 3.00017 4.49984H5.8316L5.20712 3.84536C5.01662 3.64536 5.02362 3.32937 5.22362 3.13838C5.42361 2.94738 5.7401 2.95538 5.9306 3.15488ZM0 4.99988C0 7.75731 2.24295 9.99976 4.99988 9.99976C7.75681 9.99976 9.99976 7.75731 9.99976 4.99988C9.99976 2.24295 7.75681 0 4.99988 0C2.24295 0 0 2.24295 0 4.99988Z" fill="#49A8F8"/>
</svg>
