<svg width="64" height="64" viewBox="0 0 64 64" fill="none" xmlns="http://www.w3.org/2000/svg">
<g filter="url(#filter0_d_4342_3054)">
<circle cx="32" cy="25" r="12" fill="white"/>
</g>
<circle cx="32.0013" cy="24.9993" r="9.33333" fill="#9DA8B6"/>
<path fill-rule="evenodd" clip-rule="evenodd" d="M35 26H33V28C33 28.55 32.55 29 32 29C31.45 29 31 28.55 31 28V26H29C28.45 26 28 25.55 28 25C28 24.45 28.45 24 29 24H31V22C31 21.45 31.45 21 32 21C32.55 21 33 21.45 33 22V24H35C35.55 24 36 24.45 36 25C36 25.55 35.55 26 35 26Z" fill="white"/>
<defs>
<filter id="filter0_d_4342_3054" x="0" y="0" width="64" height="64" filterUnits="userSpaceOnUse" color-interpolation-filters="sRGB">
<feFlood flood-opacity="0" result="BackgroundImageFix"/>
<feColorMatrix in="SourceAlpha" type="matrix" values="0 0 0 0 0 0 0 0 0 0 0 0 0 0 0 0 0 0 127 0" result="hardAlpha"/>
<feOffset dy="7"/>
<feGaussianBlur stdDeviation="10"/>
<feColorMatrix type="matrix" values="0 0 0 0 0 0 0 0 0 0 0 0 0 0 0 0 0 0 0.08 0"/>
<feBlend mode="normal" in2="BackgroundImageFix" result="effect1_dropShadow_4342_3054"/>
<feBlend mode="normal" in="SourceGraphic" in2="effect1_dropShadow_4342_3054" result="shape"/>
</filter>
</defs>
</svg>
