<svg width="42" height="39" viewBox="0 0 42 39" fill="none" xmlns="http://www.w3.org/2000/svg">
<path fill-rule="evenodd" clip-rule="evenodd" d="M29.2095 18.4737C28.0764 18.4737 27.1569 17.5541 27.1569 16.4211C27.1569 15.288 28.0764 14.3684 29.2095 14.3684C30.3426 14.3684 31.2621 15.288 31.2621 16.4211C31.2621 17.5541 30.3426 18.4737 29.2095 18.4737ZM20.999 18.4737C19.8659 18.4737 18.9463 17.5541 18.9463 16.4211C18.9463 15.288 19.8659 14.3684 20.999 14.3684C22.132 14.3684 23.0516 15.288 23.0516 16.4211C23.0516 17.5541 22.132 18.4737 20.999 18.4737ZM12.7884 18.4737C11.6554 18.4737 10.7358 17.5541 10.7358 16.4211C10.7358 15.288 11.6554 14.3684 12.7884 14.3684C13.9215 14.3684 14.8411 15.288 14.8411 16.4211C14.8411 17.5541 13.9215 18.4737 12.7884 18.4737ZM35.3674 0H6.63055C3.2355 0 0.472656 2.76284 0.472656 6.1579V36.9474C0.472656 37.6863 0.870867 38.3698 1.51334 38.7332C1.82739 38.9117 2.17634 39 2.52529 39C2.89066 39 3.25602 38.9035 3.58239 38.7065L12.8685 33.1356C13.1887 32.9427 13.5541 32.8421 13.9256 32.8421H35.3674C38.7624 32.8421 41.5253 30.0793 41.5253 26.6842V6.1579C41.5253 2.76284 38.7624 0 35.3674 0Z" fill="#2062F4"/>
</svg>
