<svg width="109" height="118" viewBox="0 0 109 118" fill="none" xmlns="http://www.w3.org/2000/svg">
<path d="M54.2169 109.215C84.16 109.215 108.434 84.9413 108.434 54.9981C108.434 25.055 84.16 0.78125 54.2169 0.78125C24.2737 0.78125 0 25.055 0 54.9981C0 84.9413 24.2737 109.215 54.2169 109.215Z" fill="url(#paint0_linear_4834_3105)"/>
<g filter="url(#filter0_d_4834_3105)">
<path d="M85.2988 31.8672H23.1301C21.1339 31.8672 19.5156 33.4854 19.5156 35.4816V111.385C19.5156 113.381 21.1339 115 23.1301 115H85.2988C87.295 115 88.9132 113.381 88.9132 111.385V35.4816C88.9132 33.4854 87.295 31.8672 85.2988 31.8672Z" fill="white"/>
</g>
<path d="M46.9873 42.707H28.1921C26.9944 42.707 26.0234 43.678 26.0234 44.8757C26.0234 46.0734 26.9944 47.0444 28.1921 47.0444H46.9873C48.185 47.0444 49.156 46.0734 49.156 44.8757C49.156 43.678 48.185 42.707 46.9873 42.707Z" fill="#B4DAFF"/>
<path d="M59.9993 52.1055H28.1921C26.9944 52.1055 26.0234 53.0764 26.0234 54.2741C26.0234 55.4719 26.9944 56.4428 28.1921 56.4428H59.9993C61.1971 56.4428 62.168 55.4719 62.168 54.2741C62.168 53.0764 61.1971 52.1055 59.9993 52.1055Z" fill="#DFEAFB"/>
<path d="M46.9873 62.2266H28.1921C26.9944 62.2266 26.0234 63.1975 26.0234 64.3952C26.0234 65.593 26.9944 66.5639 28.1921 66.5639H46.9873C48.185 66.5639 49.156 65.593 49.156 64.3952C49.156 63.1975 48.185 62.2266 46.9873 62.2266Z" fill="#B4DAFF"/>
<path d="M59.9993 71.625H28.1921C26.9944 71.625 26.0234 72.5959 26.0234 73.7937C26.0234 74.9914 26.9944 75.9623 28.1921 75.9623H59.9993C61.1971 75.9623 62.168 74.9914 62.168 73.7937C62.168 72.5959 61.1971 71.625 59.9993 71.625Z" fill="#DFEAFB"/>
<path d="M46.9873 81.7461H28.1921C26.9944 81.7461 26.0234 82.717 26.0234 83.9148C26.0234 85.1125 26.9944 86.0834 28.1921 86.0834H46.9873C48.185 86.0834 49.156 85.1125 49.156 83.9148C49.156 82.717 48.185 81.7461 46.9873 81.7461Z" fill="#B4DAFF"/>
<path d="M59.9993 91.1445H28.1921C26.9944 91.1445 26.0234 92.1155 26.0234 93.3132C26.0234 94.5109 26.9944 95.4819 28.1921 95.4819H59.9993C61.1971 95.4819 62.168 94.5109 62.168 93.3132C62.168 92.1155 61.1971 91.1445 59.9993 91.1445Z" fill="#DFEAFB"/>
<defs>
<filter id="filter0_d_4834_3105" x="13.5156" y="22.8672" width="81.3984" height="95.1328" filterUnits="userSpaceOnUse" color-interpolation-filters="sRGB">
<feFlood flood-opacity="0" result="BackgroundImageFix"/>
<feColorMatrix in="SourceAlpha" type="matrix" values="0 0 0 0 0 0 0 0 0 0 0 0 0 0 0 0 0 0 127 0" result="hardAlpha"/>
<feOffset dy="-3"/>
<feGaussianBlur stdDeviation="3"/>
<feColorMatrix type="matrix" values="0 0 0 0 0.788235 0 0 0 0 0.803922 0 0 0 0 0.85098 0 0 0 0.349 0"/>
<feBlend mode="normal" in2="BackgroundImageFix" result="effect1_dropShadow_4834_3105"/>
<feBlend mode="normal" in="SourceGraphic" in2="effect1_dropShadow_4834_3105" result="shape"/>
</filter>
<linearGradient id="paint0_linear_4834_3105" x1="54.2169" y1="0.78125" x2="54.2169" y2="109.215" gradientUnits="userSpaceOnUse">
<stop stop-color="#E3ECFA"/>
<stop offset="1" stop-color="#DAE7FF"/>
</linearGradient>
</defs>
</svg>
