<svg width="24" height="24" viewBox="0 0 24 24" fill="none" xmlns="http://www.w3.org/2000/svg">
<rect width="24" height="24" fill="white" fill-opacity="0.01"/>
<path fill-rule="evenodd" clip-rule="evenodd" d="M6.48306 17.6681C6.66879 17.8539 6.88931 18.0012 7.13201 18.1018C7.37471 18.2024 7.63485 18.2541 7.89756 18.2541C8.16027 18.2541 8.42041 18.2024 8.66312 18.1018C8.90582 18.0012 9.12634 17.8539 9.31206 17.6681L6.48306 14.838C6.29711 15.0238 6.14959 15.2444 6.04894 15.4872C5.94829 15.73 5.89649 15.9902 5.89649 16.253C5.89649 16.5159 5.94829 16.7761 6.04894 17.0189C6.14959 17.2617 6.29711 17.4823 6.48306 17.6681ZM11.3801 5.47705L10.6551 6.20205C9.87306 6.98405 8.44506 8.01505 7.44906 8.51305L4.43206 10.0221C3.93706 10.2701 3.84806 10.7961 4.24506 11.1931L12.8011 19.7491C13.1991 20.1451 13.7231 20.062 13.9721 19.5611L15.4821 16.545C15.9761 15.557 17.0081 14.1251 17.7931 13.3391L18.5181 12.6131C19.3413 11.7899 19.8547 10.7075 19.9713 9.54916C20.088 8.39084 19.8007 7.22781 19.1581 6.25705C19.2656 6.17088 19.3544 6.06362 19.4189 5.94187C19.4834 5.82011 19.5224 5.68644 19.5333 5.54907C19.5443 5.41171 19.527 5.27355 19.4825 5.14312C19.4381 5.01268 19.3674 4.89272 19.2749 4.79061C19.1824 4.6885 19.0699 4.60641 18.9444 4.54939C18.819 4.49237 18.6832 4.46162 18.5454 4.45904C18.4077 4.45646 18.2708 4.4821 18.1433 4.53438C18.0158 4.58666 17.9004 4.66448 17.8041 4.76305C17.7811 4.78805 17.7581 4.81205 17.7381 4.83805C16.9115 4.29001 15.9418 3.99783 14.9501 3.99805C14.287 3.99726 13.6303 4.12741 13.0177 4.38105C12.405 4.63468 11.8485 5.0068 11.3801 5.47605V5.47705Z" fill="#00119D"/>
</svg>
