<svg width="57" height="18" viewBox="0 0 57 18" fill="none" xmlns="http://www.w3.org/2000/svg">
<path fill-rule="evenodd" clip-rule="evenodd" d="M14.1006 17.8599H9.21953L5.55932 3.89604C5.38559 3.2537 5.01672 2.68583 4.47411 2.41819C3.11998 1.7456 1.62782 1.21031 0 0.940346V0.402736H7.86302C8.94823 0.402736 9.76213 1.21031 9.89779 2.14822L11.7969 12.2208L16.6756 0.402736H21.421L14.1006 17.8599ZM24.134 17.8599H19.5242L23.3201 0.402736H27.9298L24.134 17.8599ZM33.8937 5.23879C34.0293 4.29855 34.8432 3.76094 35.7928 3.76094C37.2849 3.62596 38.9104 3.89593 40.2669 4.56619L41.0808 0.807578C39.7243 0.269968 38.2321 0 36.878 0C32.4039 0 29.1482 2.41808 29.1482 5.77407C29.1482 8.32713 31.4543 9.66767 33.0821 10.4752C34.8432 11.2805 35.5215 11.8181 35.3858 12.6234C35.3858 13.8312 34.0293 14.3688 32.6752 14.3688C31.0474 14.3688 29.4195 13.9662 27.9298 13.2936L27.1159 17.0546C28.7437 17.7248 30.5048 17.9948 32.1326 17.9948C37.1493 18.1275 40.2669 15.7117 40.2669 12.0857C40.2669 7.51955 33.8937 7.25191 33.8937 5.23879ZM56.3999 17.8599L52.7397 0.402736H48.8082C47.9943 0.402736 47.1804 0.940346 46.9091 1.7456L40.1313 17.8599H44.8767L45.8239 15.3092H51.6545L52.1971 17.8599H56.3999ZM49.4866 5.10302L50.8408 11.6823H47.0449L49.4866 5.10302Z" fill="#172B85"/>
</svg>
