<svg width="20" height="20" viewBox="0 0 20 20" fill="none" xmlns="http://www.w3.org/2000/svg">
<path fill-rule="evenodd" clip-rule="evenodd" d="M12.707 11.293C13.098 11.684 13.098 12.316 12.707 12.707C12.512 12.902 12.256 13 12 13C11.744 13 11.488 12.902 11.293 12.707L10 11.414L8.707 12.707C8.512 12.902 8.256 13 8 13C7.744 13 7.488 12.902 7.293 12.707C6.902 12.316 6.902 11.684 7.293 11.293L8.586 10L7.293 8.707C6.902 8.316 6.902 7.684 7.293 7.293C7.684 6.902 8.316 6.902 8.707 7.293L10 8.586L11.293 7.293C11.684 6.902 12.316 6.902 12.707 7.293C13.098 7.684 13.098 8.316 12.707 8.707L11.414 10L12.707 11.293ZM10 0C4.486 0 0 4.486 0 10C0 15.514 4.486 20 10 20C15.514 20 20 15.514 20 10C20 4.486 15.514 0 10 0Z" fill="#E5E9F2"/>
</svg>
