<svg width="17" height="20" viewBox="0 0 17 20" fill="none" xmlns="http://www.w3.org/2000/svg">
<path d="M8.79381 0.481119C8.46054 0.37869 8.1042 0.37869 7.77094 0.481119L4.7852 1.39879C3.25085 1.87037 1.79367 2.56371 0.459883 3.45681C-0.387957 4.02452 0.0139223 5.34701 1.03428 5.34701H15.5305C16.5508 5.34701 16.9527 4.02452 16.1049 3.45681C14.7711 2.56371 13.3139 1.87037 11.7795 1.39879L8.79381 0.481119Z" fill="url(#paint0_linear_111_265)"/>
<path d="M0.532349 18.847C0.532349 18.4328 0.868135 18.097 1.28235 18.097H15.2823C15.6966 18.097 16.0323 18.4328 16.0323 18.847C16.0323 19.2612 15.6966 19.597 15.2823 19.597H1.28235C0.868135 19.597 0.532349 19.2612 0.532349 18.847Z" fill="url(#paint1_linear_111_265)"/>
<path d="M2.53235 14.847C2.53235 15.2612 2.86813 15.597 3.28235 15.597C3.69656 15.597 4.03235 15.2612 4.03235 14.847L4.03235 8.84702C4.03235 8.4328 3.69656 8.09702 3.28235 8.09702C2.86813 8.09702 2.53235 8.4328 2.53235 8.84702L2.53235 14.847Z" fill="url(#paint2_linear_111_265)"/>
<path d="M8.28235 15.597C7.86813 15.597 7.53235 15.2612 7.53235 14.847L7.53235 8.84702C7.53235 8.4328 7.86813 8.09702 8.28235 8.09702C8.69656 8.09702 9.03235 8.4328 9.03235 8.84702V14.847C9.03235 15.2612 8.69656 15.597 8.28235 15.597Z" fill="url(#paint3_linear_111_265)"/>
<path d="M12.5323 14.847C12.5323 15.2612 12.8681 15.597 13.2823 15.597C13.6966 15.597 14.0323 15.2612 14.0323 14.847V8.84702C14.0323 8.4328 13.6966 8.09702 13.2823 8.09702C12.8681 8.09702 12.5323 8.4328 12.5323 8.84702V14.847Z" fill="url(#paint4_linear_111_265)"/>
<defs>
<linearGradient id="paint0_linear_111_265" x1="1.47808" y1="-4.05115" x2="13.3906" y2="-3.353" gradientUnits="userSpaceOnUse">
<stop stop-color="#49A8F8"/>
<stop offset="1" stop-color="#0053F4"/>
</linearGradient>
<linearGradient id="paint1_linear_111_265" x1="1.47808" y1="-4.05115" x2="13.3906" y2="-3.353" gradientUnits="userSpaceOnUse">
<stop stop-color="#49A8F8"/>
<stop offset="1" stop-color="#0053F4"/>
</linearGradient>
<linearGradient id="paint2_linear_111_265" x1="1.47808" y1="-4.05115" x2="13.3906" y2="-3.353" gradientUnits="userSpaceOnUse">
<stop stop-color="#49A8F8"/>
<stop offset="1" stop-color="#0053F4"/>
</linearGradient>
<linearGradient id="paint3_linear_111_265" x1="1.47808" y1="-4.05115" x2="13.3906" y2="-3.353" gradientUnits="userSpaceOnUse">
<stop stop-color="#49A8F8"/>
<stop offset="1" stop-color="#0053F4"/>
</linearGradient>
<linearGradient id="paint4_linear_111_265" x1="1.47808" y1="-4.05115" x2="13.3906" y2="-3.353" gradientUnits="userSpaceOnUse">
<stop stop-color="#49A8F8"/>
<stop offset="1" stop-color="#0053F4"/>
</linearGradient>
</defs>
</svg>
