<svg width="16" height="18" viewBox="0 0 16 18" fill="none" xmlns="http://www.w3.org/2000/svg">
<path fill-rule="evenodd" clip-rule="evenodd" d="M14.2222 8H1.77778V4.44444C1.77778 3.95467 2.17689 3.55556 2.66667 3.55556H3.55556V4.44444C3.55556 4.93333 3.95556 5.33333 4.44444 5.33333C4.93333 5.33333 5.33333 4.93333 5.33333 4.44444V3.55556H10.6667V4.44444C10.6667 4.93333 11.0667 5.33333 11.5556 5.33333C12.0444 5.33333 12.4444 4.93333 12.4444 4.44444V3.55556H13.3333C13.8231 3.55556 14.2222 3.95467 14.2222 4.44444V8ZM11.5556 13.3333H8C7.51111 13.3333 7.11111 12.9333 7.11111 12.4444C7.11111 11.9556 7.51111 11.5556 8 11.5556H11.5556C12.0444 11.5556 12.4444 11.9556 12.4444 12.4444C12.4444 12.9333 12.0444 13.3333 11.5556 13.3333ZM4.44444 13.3333C3.95556 13.3333 3.55556 12.9333 3.55556 12.4444C3.55556 11.9556 3.95556 11.5556 4.44444 11.5556C4.93333 11.5556 5.33333 11.9556 5.33333 12.4444C5.33333 12.9333 4.93333 13.3333 4.44444 13.3333ZM13.3333 1.77778H12.4444V0.888889C12.4444 0.4 12.0444 0 11.5556 0C11.0667 0 10.6667 0.4 10.6667 0.888889V1.77778H5.33333V0.888889C5.33333 0.4 4.93333 0 4.44444 0C3.95556 0 3.55556 0.4 3.55556 0.888889V1.77778H2.66667C1.19644 1.77778 0 2.97422 0 4.44444V15.1111C0 16.5813 1.19644 17.7778 2.66667 17.7778H13.3333C14.8036 17.7778 16 16.5813 16 15.1111V4.44444C16 2.97422 14.8036 1.77778 13.3333 1.77778Z" fill="url(#paint0_linear_42_3528)"/>
<defs>
<linearGradient id="paint0_linear_42_3528" x1="4.79438" y1="-0.562963" x2="10.7969" y2="19.3465" gradientUnits="userSpaceOnUse">
<stop stop-color="#2062F4"/>
<stop offset="1" stop-color="#7337FD"/>
</linearGradient>
</defs>
</svg>
