<svg width="38" height="42" viewBox="0 0 38 42" fill="none" xmlns="http://www.w3.org/2000/svg">
<path fill-rule="evenodd" clip-rule="evenodd" d="M33.7016 18.9H4.30156V10.5C4.30156 9.3429 5.24446 8.4 6.40156 8.4H8.50156V10.5C8.50156 11.655 9.44656 12.6 10.6016 12.6C11.7566 12.6 12.7016 11.655 12.7016 10.5V8.4H25.3016V10.5C25.3016 11.655 26.2466 12.6 27.4016 12.6C28.5566 12.6 29.5016 11.655 29.5016 10.5V8.4H31.6016C32.7587 8.4 33.7016 9.3429 33.7016 10.5V18.9ZM27.4016 31.5H19.0016C17.8466 31.5 16.9016 30.555 16.9016 29.4C16.9016 28.245 17.8466 27.3 19.0016 27.3H27.4016C28.5566 27.3 29.5016 28.245 29.5016 29.4C29.5016 30.555 28.5566 31.5 27.4016 31.5ZM10.6016 31.5C9.44656 31.5 8.50156 30.555 8.50156 29.4C8.50156 28.245 9.44656 27.3 10.6016 27.3C11.7566 27.3 12.7016 28.245 12.7016 29.4C12.7016 30.555 11.7566 31.5 10.6016 31.5ZM31.6016 4.2H29.5016V2.1C29.5016 0.945 28.5566 0 27.4016 0C26.2466 0 25.3016 0.945 25.3016 2.1V4.2H12.7016V2.1C12.7016 0.945 11.7566 0 10.6016 0C9.44656 0 8.50156 0.945 8.50156 2.1V4.2H6.40156C2.92816 4.2 0.101562 7.0266 0.101562 10.5V35.7C0.101562 39.1734 2.92816 42 6.40156 42H31.6016C35.075 42 37.9016 39.1734 37.9016 35.7V10.5C37.9016 7.0266 35.075 4.2 31.6016 4.2Z" fill="#2062F4"/>
</svg>
