<svg width="21" height="20" viewBox="0 0 21 20" fill="none" xmlns="http://www.w3.org/2000/svg">
<path fill-rule="evenodd" clip-rule="evenodd" d="M12.3658 6.66796C12.0375 6.66796 11.7708 6.35046 11.7708 5.95963V3.3163L14.8892 6.66796H12.3658ZM12.6042 15.0013H7.60417C7.14417 15.0013 6.77083 14.628 6.77083 14.168C6.77083 13.708 7.14417 13.3346 7.60417 13.3346H12.6042C13.065 13.3346 13.4375 13.708 13.4375 14.168C13.4375 14.628 13.065 15.0013 12.6042 15.0013ZM7.60417 10.0013H10.1042C10.5642 10.0013 10.9375 10.3746 10.9375 10.8346C10.9375 11.2946 10.5642 11.668 10.1042 11.668H7.60417C7.14417 11.668 6.77083 11.2946 6.77083 10.8346C6.77083 10.3746 7.14417 10.0013 7.60417 10.0013ZM16.5542 6.10797L12.8508 1.9413C12.6933 1.76714 12.4692 1.66797 12.2342 1.66797H5.5675C4.39333 1.66797 3.4375 2.60297 3.4375 3.7513V16.2513C3.4375 17.3996 4.39333 18.3346 5.5675 18.3346H14.6408C15.8158 18.3346 16.7708 17.3996 16.7708 16.2513V6.66797C16.7708 6.46047 16.6933 6.2613 16.5542 6.10797Z" fill="#C0CCDA"/>
<mask id="mask0_2119_1719" style="mask-type:alpha" maskUnits="userSpaceOnUse" x="3" y="1" width="14" height="18">
<path fill-rule="evenodd" clip-rule="evenodd" d="M12.3658 6.66796C12.0375 6.66796 11.7708 6.35046 11.7708 5.95963V3.3163L14.8892 6.66796H12.3658ZM12.6042 15.0013H7.60417C7.14417 15.0013 6.77083 14.628 6.77083 14.168C6.77083 13.708 7.14417 13.3346 7.60417 13.3346H12.6042C13.065 13.3346 13.4375 13.708 13.4375 14.168C13.4375 14.628 13.065 15.0013 12.6042 15.0013ZM7.60417 10.0013H10.1042C10.5642 10.0013 10.9375 10.3746 10.9375 10.8346C10.9375 11.2946 10.5642 11.668 10.1042 11.668H7.60417C7.14417 11.668 6.77083 11.2946 6.77083 10.8346C6.77083 10.3746 7.14417 10.0013 7.60417 10.0013ZM16.5542 6.10797L12.8508 1.9413C12.6933 1.76714 12.4692 1.66797 12.2342 1.66797H5.5675C4.39333 1.66797 3.4375 2.60297 3.4375 3.7513V16.2513C3.4375 17.3996 4.39333 18.3346 5.5675 18.3346H14.6408C15.8158 18.3346 16.7708 17.3996 16.7708 16.2513V6.66797C16.7708 6.46047 16.6933 6.2613 16.5542 6.10797Z" fill="white"/>
</mask>
<g mask="url(#mask0_2119_1719)">
<rect x="0.105469" width="20" height="20" fill="#C0CCDA"/>
</g>
</svg>
