<svg width="272" height="108" viewBox="0 0 272 108" fill="none" xmlns="http://www.w3.org/2000/svg">
<path d="M253.238 15.4618C262.256 15.4618 262.256 0.246094 271.273 0.246094V107.639H-359.98V97.5177C-350.211 97.5177 -350.962 103.115 -341.944 103.115C-332.926 103.115 -332.926 87.22 -323.909 87.22C-314.891 87.22 -316.394 92.1107 -305.873 92.1107C-295.352 92.1107 -298.358 101.267 -287.837 101.267C-277.316 101.267 -279.57 97.7894 -269.801 97.7894C-260.032 97.7894 -261.91 81.2152 -251.765 81.2152C-241.62 81.2152 -244.25 86.6222 -233.729 86.6222C-223.209 86.6222 -225.087 94.067 -215.694 94.067C-206.3 94.067 -207.803 69.3416 -197.658 69.3416C-187.513 69.3416 -188.64 77.9004 -179.622 77.9004C-170.604 77.9004 -172.107 65.918 -161.586 65.918C-151.065 65.918 -153.32 73.5802 -143.55 73.5802C-133.781 73.5802 -135.284 42.2522 -125.515 42.2522C-115.745 42.2522 -117.624 50.9741 -107.479 50.9741C-97.3336 50.9741 -99.9638 56.7343 -89.4429 56.7343C-78.922 56.7343 -81.5522 41.7903 -71.4071 41.7903C-61.2619 41.7903 -63.8922 49.1264 -53.3713 49.1264C-42.8504 49.1264 -44.7291 37.0354 -35.3354 37.0354C-25.9418 37.0354 -27.069 16.8203 -17.2996 16.8203C-7.53024 16.8203 -9.03323 50.648 0.736176 50.648C10.5056 50.648 9.37836 26.955 18.772 26.955C28.1656 26.955 26.2869 37.3343 36.8078 37.3343C47.3287 37.3343 45.0742 46.6539 54.8436 46.6539C64.613 46.6539 63.4858 31.2209 72.8795 31.2209C82.2731 31.2209 81.5216 45.8931 90.9153 45.8931C100.309 45.8931 99.1817 39.3721 108.951 39.3721C118.72 39.3721 117.217 25.9225 126.987 25.9225C136.756 25.9225 135.253 31.3024 145.023 31.3024C154.792 31.3024 154.041 11.6579 163.059 11.6579C172.076 11.6579 170.573 38.5842 181.094 38.5842C191.615 38.5842 188.985 20.2982 199.13 20.2982C209.275 20.2982 207.772 27.8245 217.166 27.8245C226.56 27.8245 225.808 9.07662 235.202 9.07662C244.595 9.07662 244.22 15.4618 253.238 15.4618Z" fill="white"/>
</svg>
