<svg width="20" height="19" viewBox="0 0 20 19" fill="none" xmlns="http://www.w3.org/2000/svg">
<path fill-rule="evenodd" clip-rule="evenodd" d="M14 9C13.448 9 13 8.552 13 8C13 7.448 13.448 7 14 7C14.552 7 15 7.448 15 8C15 8.552 14.552 9 14 9ZM10 9C9.448 9 9 8.552 9 8C9 7.448 9.448 7 10 7C10.552 7 11 7.448 11 8C11 8.552 10.552 9 10 9ZM6 9C5.448 9 5 8.552 5 8C5 7.448 5.448 7 6 7C6.552 7 7 7.448 7 8C7 8.552 6.552 9 6 9ZM17 0H3C1.346 0 0 1.346 0 3V18C0 18.36 0.194 18.693 0.507 18.87C0.66 18.957 0.83 19 1 19C1.178 19 1.356 18.953 1.515 18.857L6.039 16.143C6.195 16.049 6.373 16 6.554 16H17C18.654 16 20 14.654 20 13V3C20 1.346 18.654 0 17 0Z" fill="#00119D"/>
</svg>
