<svg width="14" height="14" viewBox="0 0 14 14" fill="none" xmlns="http://www.w3.org/2000/svg">
<path fill-rule="evenodd" clip-rule="evenodd" d="M6.03343 7.33949C6.0319 7.31929 6.03112 7.29888 6.03112 7.27829V0.898976C6.03112 0.458804 6.38756 0.101562 6.82853 0.101562C7.2695 0.101562 7.62594 0.458804 7.62594 0.898976V7.27829C7.62594 7.27846 7.62594 7.27862 7.62594 7.27879L9.53974 5.84359C9.89219 5.57805 10.3922 5.65061 10.6561 6.00307C10.9209 6.35553 10.8491 6.8555 10.4966 7.11945L7.30698 9.51169C7.16584 9.61775 6.99679 9.67117 6.82853 9.67117C6.66825 9.67117 6.50797 9.62253 6.37002 9.52604L3.18036 7.28212C2.81993 7.02854 2.73301 6.53096 2.98659 6.17132C3.24017 5.81089 3.73696 5.72397 4.09739 5.97755L6.03343 7.33949ZM2.04405 11.2654V12.0628H11.613V11.2654C11.613 10.8268 11.9718 10.4679 12.4104 10.4679C12.849 10.4679 13.2078 10.8268 13.2078 11.2654V12.8602C13.2078 13.2988 12.849 13.6576 12.4104 13.6576H1.24663C0.808055 13.6576 0.449219 13.2988 0.449219 12.8602V11.2654C0.449219 10.8268 0.808055 10.4679 1.24663 10.4679C1.68521 10.4679 2.04405 10.8268 2.04405 11.2654Z" fill="#C0CCDA"/>
</svg>
