<svg width="42" height="42" viewBox="0 0 42 42" fill="none" xmlns="http://www.w3.org/2000/svg">
<path fill-rule="evenodd" clip-rule="evenodd" d="M40.2425 17.4984H26.2425C25.2765 17.4984 24.4933 16.7173 24.4933 15.7492V1.74921C24.4933 0.78326 25.2765 0 26.2425 0C34.9255 0 41.9917 7.06404 41.9917 15.7492C41.9917 16.7173 41.2084 17.4984 40.2425 17.4984ZM22.9622 20.952H40.0742C41.2124 20.952 42.1027 21.9432 41.9893 23.075C40.847 34.469 30.6163 43.1878 18.6511 41.8649C9.02311 40.8023 1.19681 32.976 0.132162 23.348C-1.18657 11.3828 7.52799 1.15001 18.9241 0.00976869C20.0581 -0.103626 21.0471 0.78463 21.0471 1.92277V19.039C21.0471 20.0953 21.9039 20.952 22.9622 20.952Z" fill="#2062F4"/>
</svg>
