<svg width="11" height="11" viewBox="0 0 11 11" fill="none" xmlns="http://www.w3.org/2000/svg">
<path fill-rule="evenodd" clip-rule="evenodd" d="M5.2396 1.04485C6.4397 -0.157999 8.37625 -0.375249 9.71385 0.670851C11.316 1.92375 11.4211 4.2585 10.029 5.65385L9.24635 6.4376C9.0302 6.6543 8.6804 6.6543 8.46425 6.4376C8.2481 6.22145 8.2481 5.87 8.46425 5.65385L9.24635 4.86955C10.1566 3.9582 10.1071 2.44295 9.09675 1.59705C8.2019 0.847401 6.8588 0.990401 6.03435 1.8165L5.3342 2.51775C5.1186 2.73445 4.7677 2.73445 4.5521 2.51775C4.33595 2.3016 4.33375 1.95235 4.64945 1.6361L5.2396 1.04485ZM6.21102 4.01129L4.01102 6.21129C3.79597 6.42634 3.79597 6.77394 4.01102 6.98899C4.11827 7.09624 4.25907 7.15014 4.39987 7.15014C4.54067 7.15014 4.68147 7.09624 4.78872 6.98899L6.98872 4.78899C7.20377 4.57394 7.20377 4.22634 6.98872 4.01129C6.77367 3.79624 6.42607 3.79624 6.21102 4.01129ZM5.65396 8.46793L4.95326 9.16698C4.12771 9.99033 2.78186 10.1322 1.88646 9.38589C0.875014 8.54329 0.824964 7.03299 1.73631 6.12384L2.52006 5.34284C2.73621 5.12724 2.73621 4.77744 2.52006 4.56129C2.30391 4.34624 1.95301 4.34624 1.73631 4.56129L1.03506 5.26144C-0.159536 6.45274 -0.369086 8.36893 0.663814 9.70214C1.91286 11.3153 4.25586 11.4242 5.65396 10.0305L6.43771 9.24949C6.65386 9.03333 6.65386 8.68408 6.43771 8.46793C6.22101 8.25179 5.87066 8.25179 5.65396 8.46793Z" fill="#C0CCDA"/>
</svg>
