<svg width="236" height="64" viewBox="0 0 236 64" fill="none" xmlns="http://www.w3.org/2000/svg">
<rect y="27" width="7" height="27" fill="white"/>
<rect x="77" y="27" width="7" height="27" fill="white"/>
<rect x="154" y="27" width="7" height="27" fill="white"/>
<rect x="9" width="6" height="54" fill="white"/>
<rect x="86" width="6" height="54" fill="white"/>
<rect x="163" width="6" height="54" fill="white"/>
<rect x="17" y="13" width="7" height="41" fill="white"/>
<rect x="94" y="13" width="7" height="41" fill="white"/>
<rect x="171" y="13" width="7" height="41" fill="white"/>
<rect x="26" y="5" width="6" height="49" fill="white"/>
<rect x="103" y="5" width="6" height="49" fill="white"/>
<rect x="180" y="5" width="6" height="49" fill="white"/>
<rect x="34" y="2" width="7" height="52" fill="white"/>
<rect x="111" y="2" width="7" height="52" fill="white"/>
<rect x="188" y="2" width="7" height="52" fill="white"/>
<rect x="43" y="19" width="6" height="35" fill="white"/>
<rect x="120" y="19" width="6" height="35" fill="white"/>
<rect x="197" y="19" width="6" height="35" fill="white"/>
<rect x="51" y="11" width="7" height="43" fill="white"/>
<rect x="128" y="11" width="7" height="43" fill="white"/>
<rect x="205" y="11" width="7" height="43" fill="white"/>
<rect x="60" y="6" width="6" height="48" fill="white"/>
<rect x="137" y="6" width="6" height="48" fill="white"/>
<rect x="214" y="6" width="6" height="48" fill="white"/>
<g filter="url(#filter0_d_141_275)">
<path d="M68 24H75V54H68V39V24Z" fill="white"/>
</g>
<g filter="url(#filter1_d_141_275)">
<path d="M145 24H152V54H145V39V24Z" fill="white"/>
</g>
<g filter="url(#filter2_d_141_275)">
<path d="M222 24H229V54H222V39V24Z" fill="white"/>
</g>
<defs>
<filter id="filter0_d_141_275" x="61.7264" y="20.8632" width="19.5472" height="42.5472" filterUnits="userSpaceOnUse" color-interpolation-filters="sRGB">
<feFlood flood-opacity="0" result="BackgroundImageFix"/>
<feColorMatrix in="SourceAlpha" type="matrix" values="0 0 0 0 0 0 0 0 0 0 0 0 0 0 0 0 0 0 127 0" result="hardAlpha"/>
<feOffset dy="3.13681"/>
<feGaussianBlur stdDeviation="3.13681"/>
<feColorMatrix type="matrix" values="0 0 0 0 0.188235 0 0 0 0 0.309804 0 0 0 0 0.996078 0 0 0 0.24 0"/>
<feBlend mode="normal" in2="BackgroundImageFix" result="effect1_dropShadow_141_275"/>
<feBlend mode="normal" in="SourceGraphic" in2="effect1_dropShadow_141_275" result="shape"/>
</filter>
<filter id="filter1_d_141_275" x="138.726" y="20.8632" width="19.5472" height="42.5472" filterUnits="userSpaceOnUse" color-interpolation-filters="sRGB">
<feFlood flood-opacity="0" result="BackgroundImageFix"/>
<feColorMatrix in="SourceAlpha" type="matrix" values="0 0 0 0 0 0 0 0 0 0 0 0 0 0 0 0 0 0 127 0" result="hardAlpha"/>
<feOffset dy="3.13681"/>
<feGaussianBlur stdDeviation="3.13681"/>
<feColorMatrix type="matrix" values="0 0 0 0 0.188235 0 0 0 0 0.309804 0 0 0 0 0.996078 0 0 0 0.24 0"/>
<feBlend mode="normal" in2="BackgroundImageFix" result="effect1_dropShadow_141_275"/>
<feBlend mode="normal" in="SourceGraphic" in2="effect1_dropShadow_141_275" result="shape"/>
</filter>
<filter id="filter2_d_141_275" x="215.726" y="20.8632" width="19.5472" height="42.5472" filterUnits="userSpaceOnUse" color-interpolation-filters="sRGB">
<feFlood flood-opacity="0" result="BackgroundImageFix"/>
<feColorMatrix in="SourceAlpha" type="matrix" values="0 0 0 0 0 0 0 0 0 0 0 0 0 0 0 0 0 0 127 0" result="hardAlpha"/>
<feOffset dy="3.13681"/>
<feGaussianBlur stdDeviation="3.13681"/>
<feColorMatrix type="matrix" values="0 0 0 0 0.188235 0 0 0 0 0.309804 0 0 0 0 0.996078 0 0 0 0.24 0"/>
<feBlend mode="normal" in2="BackgroundImageFix" result="effect1_dropShadow_141_275"/>
<feBlend mode="normal" in="SourceGraphic" in2="effect1_dropShadow_141_275" result="shape"/>
</filter>
</defs>
</svg>
