<svg width="41" height="38" viewBox="0 0 41 38" fill="none" xmlns="http://www.w3.org/2000/svg">
<rect width="41" height="38" rx="10" fill="white"/>
<path fill-rule="evenodd" clip-rule="evenodd" d="M18 19V20H14.667C14.299 20 14 19.701 14 19.333V12.667C14 12.299 14.299 12 14.667 12H21.333C21.701 12 22 12.299 22 12.667V16H21C19.346 16 18 17.346 18 19ZM27 16H24V12.667C24 11.196 22.804 10 21.333 10H14.667C13.196 10 12 11.196 12 12.667V19.333C12 20.804 13.196 22 14.667 22H18V25C18 26.654 19.346 28 21 28H27C28.654 28 30 26.654 30 25V19C30 17.346 28.654 16 27 16Z" fill="#2062F4"/>
</svg>
