<svg width="26" height="26" viewBox="0 0 26 26" fill="none" xmlns="http://www.w3.org/2000/svg">
<path d="M23.2746 0H1.36268C0.626835 0 0 0.629474 0 1.39579V3.88632C0 4.65263 0.626835 5.2821 1.36268 5.2821H23.2746C24.0377 5.2821 24.6373 4.65263 24.6646 3.88632V1.42316C24.6646 0.629474 24.0377 0 23.2746 0ZM23.2746 13.8211H1.36268C1.00839 13.8211 0.654088 13.9579 0.408805 14.2316C0.136268 14.5053 0 14.8337 0 15.2168V17.7074C0 18.4737 0.626835 19.1032 1.36268 19.1032H23.2746C24.0377 19.1032 24.6373 18.5011 24.6646 17.7074V15.2168C24.6373 14.4232 24.0377 13.8211 23.2746 13.8211ZM13.7086 20.7179H1.36268C1.00839 20.7179 0.654088 20.8547 0.408805 21.1284C0.163522 21.4021 0 21.7305 0 22.1137V24.6042C0 25.3705 0.626835 26 1.36268 26H13.6813C14.4444 26 15.044 25.3705 15.044 24.6316V22.1411C15.0713 21.32 14.4717 20.6905 13.7086 20.7179ZM24.6646 6.89684H1.36268C1.00839 6.89684 0.654088 7.03368 0.408805 7.30737C0.163522 7.58105 0 7.90947 0 8.29263V10.7832C0 11.5495 0.626835 12.1789 1.36268 12.1789H24.6373C25.4004 12.1789 26 11.5495 26 10.7832V8.29263C26.0273 7.52632 25.4004 6.92421 24.6646 6.89684Z" fill="#00C3F7"/>
</svg>
