<svg width="15" height="14" viewBox="0 0 15 14" fill="none" xmlns="http://www.w3.org/2000/svg">
<path fill-rule="evenodd" clip-rule="evenodd" d="M4.10878 5.46615C4.74326 5.46615 5.25821 4.9512 5.25821 4.31672C5.25821 3.68224 4.74326 3.1673 4.10878 3.1673C3.4743 3.1673 2.95935 3.68224 2.95935 4.31672C2.95935 4.9512 3.4743 5.46615 4.10878 5.46615ZM2.57616 1.63443H11.7716C12.1945 1.63443 12.5378 1.97772 12.5378 2.40071V8.80991L10.0834 6.71642C9.32482 6.07121 8.13784 6.07121 7.38612 6.71182L1.80987 11.3647V2.40071C1.80987 1.97772 2.15317 1.63443 2.57616 1.63443ZM11.7716 0.101562H2.57619C1.30876 0.101562 0.277344 1.13298 0.277344 2.40041V11.5958C0.277344 12.8632 1.30876 13.8947 2.57619 13.8947H11.7716C13.039 13.8947 14.0704 12.8632 14.0704 11.5958V2.40041C14.0704 1.13298 13.039 0.101562 11.7716 0.101562Z" fill="#C0CCDA"/>
</svg>
