<svg width="25" height="22" viewBox="0 0 25 22" fill="none" xmlns="http://www.w3.org/2000/svg">
<rect width="25" height="22" rx="5" fill="white"/>
<path fill-rule="evenodd" clip-rule="evenodd" d="M16.0001 10.4995H9.00006V8.49951C9.00006 8.22401 9.22456 7.99951 9.50006 7.99951H10.0001V8.49951C10.0001 8.77451 10.2251 8.99951 10.5001 8.99951C10.7751 8.99951 11.0001 8.77451 11.0001 8.49951V7.99951H14.0001V8.49951C14.0001 8.77451 14.2251 8.99951 14.5001 8.99951C14.7751 8.99951 15.0001 8.77451 15.0001 8.49951V7.99951H15.5001C15.7756 7.99951 16.0001 8.22401 16.0001 8.49951V10.4995ZM14.4999 13.499H12.4999C12.2249 13.499 11.9999 13.274 11.9999 12.999C11.9999 12.724 12.2249 12.499 12.4999 12.499H14.4999C14.7749 12.499 14.9999 12.724 14.9999 12.999C14.9999 13.274 14.7749 13.499 14.4999 13.499ZM10.5 13.499C10.225 13.499 9.99997 13.274 9.99997 12.999C9.99997 12.724 10.225 12.499 10.5 12.499C10.775 12.499 11 12.724 11 12.999C11 13.274 10.775 13.499 10.5 13.499ZM15.5 7H15V6.5C15 6.225 14.775 6 14.5 6C14.225 6 14 6.225 14 6.5V7H11V6.5C11 6.225 10.775 6 10.5 6C10.225 6 10 6.225 10 6.5V7H9.5C8.673 7 8 7.673 8 8.5V14.5C8 15.327 8.673 16 9.5 16H15.5C16.327 16 17 15.327 17 14.5V8.5C17 7.673 16.327 7 15.5 7Z" fill="#2062F4"/>
</svg>
