<svg width="51" height="45" viewBox="0 0 51 45" fill="none" xmlns="http://www.w3.org/2000/svg">
<path fill-rule="evenodd" clip-rule="evenodd" d="M8.27734 0H43.2773C47.4123 0 50.7773 3.365 50.7773 7.49999V20H0.777344V7.49999C0.777344 3.365 4.14234 0 8.27734 0ZM8.27734 34.9996C4.14234 34.9996 0.777344 31.6346 0.777344 27.4996V24.9996H50.7773V27.4996C50.7773 31.6346 47.4123 34.9996 43.2773 34.9996H28.2773V39.9996H38.2773C39.6523 39.9996 40.7773 41.1246 40.7773 42.4996C40.7773 43.8746 39.6523 44.9996 38.2773 44.9996H13.2773C11.9023 44.9996 10.7773 43.8746 10.7773 42.4996C10.7773 41.1246 11.9023 39.9996 13.2773 39.9996H23.2773V34.9996H8.27734Z" fill="#2062F4"/>
</svg>
