<svg width="20" height="21" viewBox="0 0 20 21" fill="none" xmlns="http://www.w3.org/2000/svg">
<rect width="20" height="20" transform="translate(0 0.75)" fill="white" fill-opacity="0.01"/>
<path fill-rule="evenodd" clip-rule="evenodd" d="M12.4765 14.6407C11.4957 15.3392 10.2958 15.75 9 15.75C5.68629 15.75 3 13.0637 3 9.75C3 6.43629 5.68629 3.75 9 3.75C12.3137 3.75 15 6.43629 15 9.75C15 11.0458 14.5892 12.2457 13.8907 13.2265L16.7071 16.0429C17.0976 16.4334 17.0976 17.0666 16.7071 17.4571C16.3166 17.8476 15.6834 17.8476 15.2929 17.4571L12.4765 14.6407ZM13 9.75C13 11.9591 11.2091 13.75 9 13.75C6.79086 13.75 5 11.9591 5 9.75C5 7.54086 6.79086 5.75 9 5.75C11.2091 5.75 13 7.54086 13 9.75Z" fill="#6B778C"/>
</svg>
