<svg width="42" height="41" viewBox="0 0 42 41" fill="none" xmlns="http://www.w3.org/2000/svg">
<path fill-rule="evenodd" clip-rule="evenodd" d="M21.002 17.427C19.3067 17.427 17.927 18.8067 17.927 20.502C17.927 22.1974 19.3067 23.577 21.002 23.577C22.6974 23.577 24.077 22.1974 24.077 20.502C24.077 18.8067 22.6974 17.427 21.002 17.427ZM20.998 27.673C17.0415 27.673 13.823 24.4545 13.823 20.498C13.823 16.5415 17.0415 13.323 20.998 13.323C24.9545 13.323 28.173 16.5415 28.173 20.498C28.173 24.4545 24.9545 27.673 20.998 27.673ZM41.2818 17.0539L39.6685 11.8859C39.2831 10.6456 38.4426 9.6432 37.3048 9.061C36.1958 8.49315 34.935 8.3968 33.7542 8.7904L33.0572 9.02205C31.9584 9.3931 30.7325 9.1881 29.7916 8.48085L29.5722 8.3148C28.6764 7.6424 28.1454 6.54565 28.1495 5.38535L28.1536 4.8134C28.1577 3.51165 27.6616 2.2919 26.7535 1.37965C25.874 0.4961 24.7117 0.0082 23.4776 0.00615L18.2562 0H18.248C15.6773 0 13.5781 2.1361 13.5679 4.7683L13.5658 5.26235C13.5617 6.48825 12.998 7.64445 12.0632 8.35785L11.7987 8.55875C10.7471 9.35825 9.38385 9.5858 8.1559 9.1676C7.012 8.77605 5.78815 8.8601 4.70575 9.4054C3.59875 9.96505 2.7808 10.9367 2.40155 12.1401L0.728748 17.4599C-0.064602 19.9855 1.2679 22.6341 3.76275 23.4889L4.09895 23.6037C5.16085 23.9665 6.0157 24.8932 6.3929 26.0863L6.50565 26.4306C6.9546 27.7549 6.7988 29.151 6.0321 30.2375C4.5561 32.3346 5.00505 35.2928 7.03455 36.8303L11.2821 40.057C12.098 40.6761 13.0636 41 14.0619 41C14.2977 41 14.5355 40.9836 14.7733 40.9467C16.0279 40.7499 17.1287 40.0632 17.8708 39.0115L18.3444 38.3391C19.025 37.3715 20.0643 36.7995 21.2718 36.7667C22.4751 36.6991 23.6231 37.3264 24.3406 38.3596L24.5825 38.7122C25.3185 39.7741 26.4173 40.4711 27.676 40.674C28.9244 40.8729 30.1688 40.5634 31.1835 39.7966L35.4086 36.6068C37.4463 35.0714 37.9137 32.103 36.45 29.9874L35.9149 29.2186C35.2425 28.247 35.0457 26.9821 35.386 25.832C35.7571 24.5774 36.6837 23.5934 37.8665 23.1957L38.2786 23.0584C40.7119 22.2445 42.0588 19.5508 41.2818 17.0539Z" fill="#2062F4"/>
</svg>
