<svg width="12" height="12" viewBox="0 0 12 12" fill="none" xmlns="http://www.w3.org/2000/svg">
<path d="M6 0C2.6916 0 0 2.6916 0 6C0 9.3084 2.6916 12 6 12C9.3084 12 12 9.3084 12 6C12 2.6916 9.3084 0 6 0ZM6 10.8C3.3534 10.8 1.2 8.6466 1.2 6C1.2 3.3534 3.3534 1.2 6 1.2C8.6466 1.2 10.8 3.3534 10.8 6C10.8 8.6466 8.6466 10.8 6 10.8Z" fill="#C0CCDA"/>
<path d="M7.69863 7.69504C7.4793 7.91365 7.22027 8.08837 6.93542 8.20984C6.4226 8.42634 5.85049 8.45795 5.31695 8.29925C4.7834 8.14056 4.32156 7.80142 4.01042 7.33984L3.01562 8.01124C3.27509 8.39413 3.60518 8.72402 3.98823 8.98324C4.37802 9.24684 4.81598 9.43095 5.27702 9.52504C5.7551 9.62255 6.24795 9.62255 6.72602 9.52504C7.18703 9.43082 7.62497 9.24671 8.01482 8.98324C8.20262 8.85604 8.38202 8.70844 8.54642 8.54464C8.70962 8.38204 8.85842 8.20204 8.98682 8.01124L7.99202 7.33984C7.90579 7.46734 7.80754 7.58628 7.69863 7.69504Z" fill="#C0CCDA"/>
<path d="M8.09502 5.99082C8.58976 5.99082 8.99082 5.58976 8.99082 5.09502C8.99082 4.60028 8.58976 4.19922 8.09502 4.19922C7.60028 4.19922 7.19922 4.60028 7.19922 5.09502C7.19922 5.58976 7.60028 5.99082 8.09502 5.99082Z" fill="#C0CCDA"/>
<path d="M3.9 5.99922C4.39706 5.99922 4.8 5.59628 4.8 5.09922C4.8 4.60216 4.39706 4.19922 3.9 4.19922C3.40294 4.19922 3 4.60216 3 5.09922C3 5.59628 3.40294 5.99922 3.9 5.99922Z" fill="#C0CCDA"/>
</svg>
