<svg width="16" height="14" viewBox="0 0 16 14" fill="none" xmlns="http://www.w3.org/2000/svg">
<path fill-rule="evenodd" clip-rule="evenodd" d="M1.40679 7.5629H12.4903L9.09656 11.6357C8.76588 12.0318 8.82006 12.6212 9.21613 12.951C9.61314 13.2817 10.2016 13.2275 10.5323 12.8314L15.203 7.22661C15.2394 7.18271 15.2572 7.13133 15.2842 7.08275C15.3067 7.04352 15.3338 7.00989 15.3506 6.96692C15.3926 6.8595 15.4178 6.74647 15.4178 6.6325C15.4178 6.63157 15.4188 6.6297 15.4188 6.62877C15.4188 6.62783 15.4178 6.62596 15.4178 6.62503C15.4178 6.51107 15.3926 6.39804 15.3506 6.29061C15.3338 6.24764 15.3067 6.21401 15.2842 6.17478C15.2572 6.1262 15.2394 6.07483 15.203 6.03092L10.5323 0.426131C10.3464 0.204742 10.0811 0.0898438 9.81397 0.0898438C9.60286 0.0898438 9.39081 0.160838 9.21613 0.306562C8.82006 0.636311 8.76588 1.22575 9.09656 1.62182L12.4903 5.69463H1.40679C0.891147 5.69463 0.472656 6.11313 0.472656 6.62877C0.472656 7.14441 0.891147 7.5629 1.40679 7.5629Z" fill="#49A8F8"/>
</svg>
