<svg width="36" height="16" viewBox="0 0 36 16" fill="none" xmlns="http://www.w3.org/2000/svg">
<path fill-rule="evenodd" clip-rule="evenodd" d="M35.6936 8.21213C35.6936 5.6809 34.4748 3.68359 32.1453 3.68359C29.806 3.68359 28.3906 5.6809 28.3906 8.19235C28.3906 11.1685 30.0616 12.6715 32.4599 12.6715C33.6295 12.6715 34.5141 12.4045 35.1825 12.0288V10.0512C34.5141 10.3874 33.7475 10.595 32.7744 10.595C31.821 10.595 30.9757 10.2589 30.8675 9.09213H35.674C35.674 8.96359 35.6936 8.44943 35.6936 8.21213ZM30.8381 7.2728C30.8381 6.1555 31.5163 5.69078 32.1355 5.69078C32.7351 5.69078 33.374 6.1555 33.374 7.2728H30.8381Z" fill="#635BFF"/>
<path fill-rule="evenodd" clip-rule="evenodd" d="M24.5956 3.68359C23.6323 3.68359 23.0131 4.13843 22.6691 4.45483L22.5413 3.8418H20.3789V15.3708L22.8362 14.8467L22.846 12.0485C23.1998 12.3056 23.7208 12.6715 24.5857 12.6715C26.3451 12.6715 27.9473 11.2476 27.9473 8.11325C27.9375 5.24584 26.3157 3.68359 24.5956 3.68359ZM24.0058 10.4962C23.4259 10.4962 23.0819 10.2885 22.846 10.0315L22.8362 6.36314C23.0917 6.0764 23.4456 5.87865 24.0058 5.87865C24.9003 5.87865 25.5195 6.88719 25.5195 8.18247C25.5195 9.50741 24.9101 10.4962 24.0058 10.4962Z" fill="#635BFF"/>
<path fill-rule="evenodd" clip-rule="evenodd" d="M17 3.09972L19.4671 2.56578V0.558594L17 1.08264V3.09972Z" fill="#635BFF"/>
<path d="M19.4671 3.85156H17V12.5032H19.4671V3.85156Z" fill="#635BFF"/>
<path fill-rule="evenodd" clip-rule="evenodd" d="M14.3546 4.58194L14.1973 3.85025H12.0742V12.5019H14.5315V6.63857C15.1114 5.87722 16.0943 6.01564 16.399 6.12441V3.85025C16.0845 3.7316 14.9345 3.51407 14.3546 4.58194Z" fill="#635BFF"/>
<path fill-rule="evenodd" clip-rule="evenodd" d="M9.43938 1.70508L7.04108 2.21924L7.03125 10.1392C7.03125 11.6026 8.12228 12.6804 9.57699 12.6804C10.383 12.6804 10.9727 12.5321 11.2971 12.3541V10.3469C10.9825 10.4754 9.42955 10.9303 9.42955 9.46688V5.95677H11.2971V3.8507H9.42955L9.43938 1.70508Z" fill="#635BFF"/>
<path fill-rule="evenodd" clip-rule="evenodd" d="M2.79535 6.36315C2.79535 5.97753 3.10988 5.82921 3.63082 5.82921C4.37782 5.82921 5.32141 6.05663 6.06842 6.46202V4.13843C5.25261 3.81213 4.44663 3.68359 3.63082 3.68359C1.63552 3.68359 0.308594 4.73168 0.308594 6.4818C0.308594 9.21079 4.04364 8.77573 4.04364 9.95236C4.04364 10.4072 3.65047 10.5555 3.10005 10.5555C2.28423 10.5555 1.24235 10.2193 0.416713 9.7645V12.1178C1.33082 12.5133 2.25475 12.6814 3.10005 12.6814C5.14449 12.6814 6.55005 11.6629 6.55005 9.89304C6.54022 6.94652 2.79535 7.47056 2.79535 6.36315Z" fill="#635BFF"/>
</svg>
