<svg width="110" height="16" viewBox="0 0 110 16" fill="none" xmlns="http://www.w3.org/2000/svg">
<path d="M3.18 12.78H7.78V15H0.38V1.04H3.18V12.78ZM16.3897 15.14C15.083 15.14 13.883 14.8333 12.7897 14.22C11.6964 13.6067 10.8297 12.76 10.1897 11.68C9.54969 10.5867 9.22969 9.35333 9.22969 7.98C9.22969 6.62 9.54969 5.4 10.1897 4.32C10.8297 3.22667 11.6964 2.37333 12.7897 1.76C13.883 1.14667 15.083 0.84 16.3897 0.84C17.7097 0.84 18.9097 1.14667 19.9897 1.76C21.083 2.37333 21.943 3.22667 22.5697 4.32C23.2097 5.4 23.5297 6.62 23.5297 7.98C23.5297 9.35333 23.2097 10.5867 22.5697 11.68C21.943 12.76 21.083 13.6067 19.9897 14.22C18.8964 14.8333 17.6964 15.14 16.3897 15.14ZM16.3897 12.64C17.2297 12.64 17.9697 12.4533 18.6097 12.08C19.2497 11.6933 19.7497 11.1467 20.1097 10.44C20.4697 9.73333 20.6497 8.91333 20.6497 7.98C20.6497 7.04667 20.4697 6.23333 20.1097 5.54C19.7497 4.83333 19.2497 4.29333 18.6097 3.92C17.9697 3.54667 17.2297 3.36 16.3897 3.36C15.5497 3.36 14.803 3.54667 14.1497 3.92C13.5097 4.29333 13.0097 4.83333 12.6497 5.54C12.2897 6.23333 12.1097 7.04667 12.1097 7.98C12.1097 8.91333 12.2897 9.73333 12.6497 10.44C13.0097 11.1467 13.5097 11.6933 14.1497 12.08C14.803 12.4533 15.5497 12.64 16.3897 12.64ZM35.6828 5.24C35.3628 4.65333 34.9228 4.20667 34.3628 3.9C33.8028 3.59333 33.1495 3.44 32.4028 3.44C31.5761 3.44 30.8428 3.62667 30.2028 4C29.5628 4.37333 29.0628 4.90667 28.7028 5.6C28.3428 6.29333 28.1628 7.09333 28.1628 8C28.1628 8.93333 28.3428 9.74667 28.7028 10.44C29.0761 11.1333 29.5895 11.6667 30.2428 12.04C30.8961 12.4133 31.6561 12.6 32.5228 12.6C33.5895 12.6 34.4628 12.32 35.1428 11.76C35.8228 11.1867 36.2695 10.3933 36.4828 9.38H31.6828V7.24H39.2428V9.68C39.0561 10.6533 38.6561 11.5533 38.0428 12.38C37.4295 13.2067 36.6361 13.8733 35.6628 14.38C34.7028 14.8733 33.6228 15.12 32.4228 15.12C31.0761 15.12 29.8561 14.82 28.7628 14.22C27.6828 13.6067 26.8295 12.76 26.2028 11.68C25.5895 10.6 25.2828 9.37333 25.2828 8C25.2828 6.62667 25.5895 5.4 26.2028 4.32C26.8295 3.22667 27.6828 2.38 28.7628 1.78C29.8561 1.16667 31.0695 0.86 32.4028 0.86C33.9761 0.86 35.3428 1.24667 36.5028 2.02C37.6628 2.78 38.4628 3.85333 38.9028 5.24H35.6828ZM48.1444 15.14C46.8377 15.14 45.6377 14.8333 44.5444 14.22C43.451 13.6067 42.5844 12.76 41.9444 11.68C41.3044 10.5867 40.9844 9.35333 40.9844 7.98C40.9844 6.62 41.3044 5.4 41.9444 4.32C42.5844 3.22667 43.451 2.37333 44.5444 1.76C45.6377 1.14667 46.8377 0.84 48.1444 0.84C49.4644 0.84 50.6644 1.14667 51.7444 1.76C52.8377 2.37333 53.6977 3.22667 54.3244 4.32C54.9644 5.4 55.2844 6.62 55.2844 7.98C55.2844 9.35333 54.9644 10.5867 54.3244 11.68C53.6977 12.76 52.8377 13.6067 51.7444 14.22C50.651 14.8333 49.451 15.14 48.1444 15.14ZM48.1444 12.64C48.9844 12.64 49.7244 12.4533 50.3644 12.08C51.0044 11.6933 51.5044 11.1467 51.8644 10.44C52.2244 9.73333 52.4044 8.91333 52.4044 7.98C52.4044 7.04667 52.2244 6.23333 51.8644 5.54C51.5044 4.83333 51.0044 4.29333 50.3644 3.92C49.7244 3.54667 48.9844 3.36 48.1444 3.36C47.3044 3.36 46.5577 3.54667 45.9044 3.92C45.2644 4.29333 44.7644 4.83333 44.4044 5.54C44.0444 6.23333 43.8644 7.04667 43.8644 7.98C43.8644 8.91333 44.0444 9.73333 44.4044 10.44C44.7644 11.1467 45.2644 11.6933 45.9044 12.08C46.5577 12.4533 47.3044 12.64 48.1444 12.64ZM74.4131 1.04V15H71.6131V9.06H65.6331V15H62.8331V1.04H65.6331V6.78H71.6131V1.04H74.4131ZM80.3191 3.3V6.8H85.0191V9.02H80.3191V12.72H85.6191V15H77.5191V1.02H85.6191V3.3H80.3191ZM95.7136 15L92.6336 9.56H91.3136V15H88.5136V1.04H93.7536C94.8336 1.04 95.7536 1.23333 96.5136 1.62C97.2736 1.99333 97.8403 2.50667 98.2136 3.16C98.6003 3.8 98.7936 4.52 98.7936 5.32C98.7936 6.24 98.5269 7.07333 97.9936 7.82C97.4603 8.55333 96.6669 9.06 95.6136 9.34L98.9536 15H95.7136ZM91.3136 7.46H93.6536C94.4136 7.46 94.9803 7.28 95.3536 6.92C95.7269 6.54667 95.9136 6.03333 95.9136 5.38C95.9136 4.74 95.7269 4.24667 95.3536 3.9C94.9803 3.54 94.4136 3.36 93.6536 3.36H91.3136V7.46ZM104.476 3.3V6.8H109.176V9.02H104.476V12.72H109.776V15H101.676V1.02H109.776V3.3H104.476Z" fill="url(#paint0_linear_2101_3771)"/>
<defs>
<linearGradient id="paint0_linear_2101_3771" x1="8.99385" y1="-12.5" x2="84.2624" y2="7.94431" gradientUnits="userSpaceOnUse">
<stop stop-color="#49A8F8"/>
<stop offset="1" stop-color="#0053F4"/>
</linearGradient>
</defs>
</svg>
